<svg version="1" xmlns="http://www.w3.org/2000/svg" width="1034.667" height="1034.667" viewBox="0 0 776.000000 776.000000"><path d="M380.3 25.6c-6.5 6.3-29.3 28.8-50.8 49.8-21.4 21.1-44.4 43.6-51 50.1-6.6 6.4-30.2 29.6-52.5 51.5s-45.7 44.8-52 51c-6.3 6.2-29.9 29.3-52.5 51.5S74.4 325.7 67 333c-7.4 7.2-21.9 21.5-32.2 31.7L16 383.2l16 16.2c8.7 8.8 22.7 23.1 31.1 31.6 8.3 8.5 33.7 34.4 56.4 57.5 22.7 23.1 47.1 47.9 54.1 55.2 7.1 7.2 29.8 30.3 50.4 51.3 20.6 21 44 44.8 52 53 8 8.1 31.4 32 52 53s42.5 43.3 48.6 49.6l11.2 11.4 11-10.8c6-5.9 28.2-27.6 49.2-48.2 21-20.6 43.7-42.9 50.5-49.5 20.2-19.8 98.1-96.3 124.9-122.7 13.8-13.5 30.8-30.2 37.7-37 20.8-20.2 90.7-88.8 97.1-95.2l5.9-5.8-3.8-3.8c-4.3-4.3-84.9-86.2-100.3-102-5.6-5.8-27.9-28.4-49.4-50.3-21.5-22-44.5-45.4-51-52C553 178 528 152.5 504 128c-24.1-24.5-49.1-50-55.6-56.7-6.6-6.7-21.9-22.3-34.1-34.7L392.2 14l-11.9 11.6z"/></svg>